<?xml version="1.0" encoding="utf-8"?><!--Generator: Adobe Illustrator 22.0.1, SVG Export Plug-In . SVG Version: 6.00 Build 0)--><svg version="1.1" id="Layer_1" xmlns="http://www.w3.org/2000/svg" xmlns:xlink="http://www.w3.org/1999/xlink" x="0px" y="0px" viewBox="0 0 16 16" style="enable-background:new 0 0 16 16" xml:space="preserve"><style type="text/css">.st0{fill:#B6B8B9;}</style><path id="a_1_" class="st0" d="M8.7,8.3c0.4,0,0.8,0.4,0.8,0.8S9.1,9.9,8.7,9.9H5.4c-0.4,0-0.8-0.4-0.8-0.8s0.4-0.8,0.8-0.8H8.7z
	 M10.6,5.6c0.4,0,0.8,0.4,0.8,0.8s-0.4,0.8-0.8,0.8c0,0,0,0,0,0H5.4c-0.4,0-0.8-0.4-0.8-0.8s0.4-0.8,0.8-0.8c0,0,0,0,0,0H10.6z
	 M14.7,15.1c0,0.4-0.3,0.8-0.7,0.9c-0.1,0-0.3,0-0.4-0.1L10,14.3c-0.6,0.2-1.2,0.2-2,0.2c-4.4,0-8-3.2-8-7.3C0,3.2,3.6,0,8,0
	s8,3.2,8,7.3c0,1.6-0.6,3.1-1.7,4.4L14.7,15.1z M12.4,11.4c0-0.2,0-0.4,0.2-0.6c0.9-1,1.4-2.3,1.4-3.5c0-3.1-2.7-5.5-6-5.5
	S2,4.2,2,7.3s2.7,5.5,6,5.5c0.7,0,1.2-0.1,1.7-0.2c0.2-0.1,0.4-0.1,0.5,0l2.4,1.1C12.6,13.8,12.4,11.4,12.4,11.4z"/></svg>