<?xml version="1.0" encoding="utf-8"?><!--Generator: Adobe Illustrator 22.0.1, SVG Export Plug-In . SVG Version: 6.00 Build 0)--><svg version="1.1" id="Layer_1" xmlns="http://www.w3.org/2000/svg" xmlns:xlink="http://www.w3.org/1999/xlink" x="0px" y="0px" viewBox="0 0 16 16" style="enable-background:new 0 0 16 16" xml:space="preserve"><style type="text/css">.st0{fill:#B6B8B9;}</style><path id="a_1_" class="st0" d="M14.7,2.3c-0.8-0.8-2-1.3-3.2-1.3C10.1,1,8.8,1.6,8,2.7C7.2,1.6,5.9,1,4.5,1C2,1,0,3,0,5.5
	c0,1.2,0.5,2.3,1.3,3.2L8,15l6.7-6.3C16.4,6.9,16.4,4.1,14.7,2.3C14.7,2.3,14.7,2.3,14.7,2.3z M13.3,7.3l-5.3,5l-5.3-5
	c-1-1-0.9-2.6,0-3.5C3.2,3.3,3.8,3,4.5,3C5.9,3,6.8,3.7,8,5.6C9.2,3.7,10.1,3,11.5,3C12.9,3,14,4.1,14,5.5C14,6.2,13.7,6.8,13.3,7.3
	C13.3,7.3,13.3,7.3,13.3,7.3z"/></svg>