<?xml version="1.0" encoding="utf-8"?>
<svg version="1.1" id="Layer_1" xmlns="http://www.w3.org/2000/svg" xmlns:xlink="http://www.w3.org/1999/xlink" x="0px" y="0px" viewBox="0 0 16 16" style="enable-background:new 0 0 16 16" xml:space="preserve">
	<style type="text/css">
		.st0{fill:#B6B8B9;}
	</style>
	<path id="a_1_" class="st0" d="M12.7,11.2c0.9-1.2,1.4-2.6,1.4-4.2c0-3.9-3.1-7.1-7-7.1S0,3.1,0,7s3.2,7.1,7.1,7.1
	c1.6,0,3.1-0.5,4.2-1.4l3,3c0.2,0.2,0.5,0.3,0.7,0.3s0.5-0.1,0.7-0.3c0.4-0.4,0.4-1,0-1.4C15.7,14.4,12.7,11.3,12.7,11.2z M7.1,1.9
	c2.8,0,5.1,2.3,5.1,5.1s-2.3,5-5.1,5S2,9.8,2,7S4.3,1.9,7.1,1.9z M8.3,5.3L6.3,7.4L5.7,6.8c-0.4-0.4-1-0.4-1.4-0.1
	c-0.4,0.4-0.4,1-0.1,1.4l0,0l1.3,1.5C6,10,6.6,10.1,7,9.7c0,0,0.1-0.1,0.1-0.1l2.7-3c0.4-0.4,0.3-1-0.1-1.4S8.6,4.9,8.3,5.3L8.3,5.3
	L8.3,5.3z" />
</svg>
